<svg data-v-1084b650="" xmlns="http://www.w3.org/2000/svg" viewBox="0 0 300 300"><!----> <!----> <rect data-v-1084b650="" fill="#7730E1" x="0" y="0" width="300px" height="300px" class="logo-background-square"></rect> <!----> <!----> <g data-v-1084b650="" id="332ad10b-05dd-0ed3-6cba-32f5dae3be33" fill="#DBDF24" stroke="none" transform="matrix(0.7499999999999998,0,0,0.7499999999999998,37.989120483398466,35.40124940872195)"><svg xmlns="http://www.w3.org/2000/svg" xmlns:xlink="http://www.w3.org/1999/xlink" version="1.1" x="0px" y="0px" viewBox="0 0 90 90" enable-background="new 0 0 90 90" xml:space="preserve"><path d="M80.328,26.028L55.082,6.485c-1.581-1.224-3.896-1.955-6.191-1.955c-1.256,0-2.46,0.221-3.482,0.64  L15.862,17.261c-2.974,1.218-5.543,4.537-5.976,7.72L5.583,56.615C5.149,59.8,6.739,63.684,9.28,65.65l25.245,19.544  c1.582,1.225,3.896,1.955,6.192,1.955c1.256,0,2.46-0.221,3.482-0.64l29.547-12.091c2.974-1.217,5.543-4.536,5.977-7.721  l4.303-31.634C84.459,31.881,82.869,27.997,80.328,26.028z M52.504,33.413l-3.185,23.426L30.743,42.318l18.784-7.688L52.504,33.413z   M18.009,22.508l29.547-12.091c0.342-0.14,0.815-0.217,1.334-0.217c1.034,0,2.128,0.309,2.722,0.769l3.691,2.857L53.597,26.84  L13.1,43.412l2.403-17.667C15.664,24.563,16.905,22.959,18.009,22.508z M42.052,81.263c-0.342,0.141-0.816,0.218-1.335,0.218  c-1.034,0-2.127-0.31-2.721-0.769L12.75,61.168c-0.943-0.73-1.711-2.607-1.551-3.789l1.018-7.48l12.325-5.043l25.05,19.393  l11.696,9.144L42.052,81.263z M78.408,34.3l-4.303,31.633c-0.161,1.183-1.402,2.786-2.506,3.238l-4.269,1.747l-12.517-9.784  l5.68-43.29l16.363,12.667C77.801,31.242,78.569,33.118,78.408,34.3z"></path></svg></g></svg>