<svg data-v-5f19e91b="" xmlns="http://www.w3.org/2000/svg" width="353" height="76" viewBox="0 0 353 76"><!----> <!----> <!----> <g data-v-5f19e91b="" id="ebe3fabe-d494-3b76-281b-8919aba6e745" fill="white" transform="matrix(5.7526364568010235,0,0,5.7526364568010235,91.68000425878839,6.310928198783646)"><path d="M4.68 10.71L8.82 0.49L6.51 0.49L5.17 3.89L4.45 5.89L3.72 3.82L2.39 0.49L0.08 0.49L4.23 10.71ZM12.04 10.50L12.04 0.49L10.04 0.49L10.04 10.50L12.04 10.50L12.04 10.50ZM13.83 9.86C15.19 10.56 16.44 10.63 17.00 10.58C18.87 10.49 20.02 9.21 20.02 7.55C20.02 5.95 18.68 5.05 17.12 4.48C16.55 4.28 16.06 4.03 16.00 3.47C15.96 2.91 16.28 2.39 17.00 2.35C17.30 2.34 17.93 2.32 19.04 2.77L19.29 0.84C18.00 0.39 17.32 0.39 16.80 0.42C15.13 0.50 13.97 1.79 13.97 3.47C13.97 5.15 15.37 5.95 16.94 6.52C17.50 6.72 17.93 6.97 17.98 7.55C18.03 8.09 17.53 8.51 16.94 8.55C16.48 8.60 15.23 8.57 14.08 7.76L13.83 9.86L13.83 9.86ZM23.70 10.50L23.70 0.49L21.70 0.49L21.70 10.50L23.70 10.50L23.70 10.50ZM30.77 10.64L30.77 10.64C37.66 10.64 37.66 0.32 30.77 0.32C23.88 0.32 23.88 10.64 30.77 10.64ZM30.77 8.57L30.77 8.57C26.77 8.57 26.77 2.38 30.77 2.38C34.78 2.38 34.78 8.57 30.77 8.57ZM39.82 5.05L39.82 5.05L44.88 10.71L45.42 10.71L45.42 0.50L43.40 0.50L43.40 6.16L38.35 0.28L37.81 0.28L37.81 10.50L39.82 10.50L39.82 5.05Z"></path></g> <!----> <g data-v-5f19e91b="" id="ba8c6251-f69c-891b-85ed-336ee34ac674" transform="matrix(0.9179889255099827,0,0,0.9179889255099827,-4.618076987217179,-3.5501548465073753)" stroke="none" fill="white"><path d="M80.328,26.028L55.082,6.485c-1.581-1.224-3.896-1.955-6.191-1.955c-1.256,0-2.46,0.221-3.482,0.64  L15.862,17.261c-2.974,1.218-5.543,4.537-5.976,7.72L5.583,56.615C5.149,59.8,6.739,63.684,9.28,65.65l25.245,19.544  c1.582,1.225,3.896,1.955,6.192,1.955c1.256,0,2.46-0.221,3.482-0.64l29.547-12.091c2.974-1.217,5.543-4.536,5.977-7.721  l4.303-31.634C84.459,31.881,82.869,27.997,80.328,26.028z M52.504,33.413l-3.185,23.426L30.743,42.318l18.784-7.688L52.504,33.413z   M18.009,22.508l29.547-12.091c0.342-0.14,0.815-0.217,1.334-0.217c1.034,0,2.128,0.309,2.722,0.769l3.691,2.857L53.597,26.84  L13.1,43.412l2.403-17.667C15.664,24.563,16.905,22.959,18.009,22.508z M42.052,81.263c-0.342,0.141-0.816,0.218-1.335,0.218  c-1.034,0-2.127-0.31-2.721-0.769L12.75,61.168c-0.943-0.73-1.711-2.607-1.551-3.789l1.018-7.48l12.325-5.043l25.05,19.393  l11.696,9.144L42.052,81.263z M78.408,34.3l-4.303,31.633c-0.161,1.183-1.402,2.786-2.506,3.238l-4.269,1.747l-12.517-9.784  l5.68-43.29l16.363,12.667C77.801,31.242,78.569,33.118,78.408,34.3z"></path></g></svg>