<?xml version="1.0" encoding="utf-8"?>
<!-- Generator: Adobe Illustrator 16.0.0, SVG Export Plug-In . SVG Version: 6.00 Build 0)  -->
<!DOCTYPE svg PUBLIC "-//W3C//DTD SVG 1.1//EN" "http://www.w3.org/Graphics/SVG/1.1/DTD/svg11.dtd">
<svg version="1.1" id="Layer_1" xmlns="http://www.w3.org/2000/svg" xmlns:xlink="http://www.w3.org/1999/xlink" x="0px" y="0px"
	 width="600px" height="120px" viewBox="0 0 600 120" enable-background="new 0 0 600 120" xml:space="preserve">
<g id="_x33_32ad10b-05dd-0ed3-6cba-32f5dae3be33" transform="matrix(0.7499999999999998,0,0,0.7499999999999998,37.989120483398466,35.40124940872195)">
	<path fill="#DBDF24" d="M87.315,53.166L80.231,1.087c-0.714-5.245-4.944-10.709-9.839-12.712L21.745-31.532
		c-1.682-0.69-3.663-1.053-5.731-1.053c-3.781,0-7.59,1.201-10.195,3.218L-35.744,2.809c-4.184,3.238-6.801,9.632-6.088,14.876
		l7.086,52.079c0.714,5.242,4.943,10.706,9.839,12.71l48.645,19.908c1.683,0.691,3.665,1.053,5.732,1.053
		c3.779,0,7.59-1.203,10.193-3.22l41.563-32.174C85.408,64.798,88.028,58.406,87.315,53.166z M30.517,53.879L-0.408,41.222
		l30.583-23.905l5.243,38.566L30.517,53.879z M-25.499,68.508l-3.956-29.087l66.672,27.283l2.809,21.427l-6.077,4.703
		c-0.977,0.758-2.778,1.267-4.482,1.267c-0.854,0-1.632-0.125-2.195-0.355l-48.645-19.908
		C-23.189,73.094-25.234,70.451-25.499,68.508z M49.879-9.938L30.624,5.116l-41.24,31.927l-20.291-8.303l-1.677-12.312
		c-0.263-1.947,1.001-5.036,2.554-6.239l41.564-32.177c0.979-0.756,2.778-1.266,4.48-1.266c0.853,0,1.633,0.127,2.197,0.359
		L49.879-9.938z M75.512,60.66L48.57,81.516l-9.35-71.272L59.826-5.864l7.029,2.877c1.819,0.744,3.862,3.384,4.126,5.332
		l7.084,52.077C78.331,56.369,77.067,59.456,75.512,60.66z"/>
</g>
<g>
	<path fill="#FFFFFF" d="M158.153,23.578h1.483l29.767,73.279h-15.921l-2.868-7.614h-23.438l-2.769,7.614h-16.021L158.153,23.578z
		 M165.372,75.991l-6.428-18.394l-6.626,18.394H165.372z"/>
	<path fill="#FFFFFF" d="M234.494,96.857l-14.241-26.998h-6.824v26.998h-14.142V26.149h27.888c25.218,0,27.69,35.502,6.923,41.535
		l16.416,29.173H234.494z M213.43,56.113h12.46c9.593,0,9.593-15.822,0-15.822h-12.46V56.113z"/>
	<path fill="#FFFFFF" d="M271.574,96.857V40.291h-17.603V26.249h49.347v14.042h-17.603v56.566H271.574z"/>
	<path fill="#FFFFFF" d="M374.319,25.062h4.45v71.796h-14.339l0.099-39.458l-18.098,18.987l-18.097-18.987v39.458h-14.34V25.062
		h4.549l27.888,31.052L374.319,25.062z"/>
	<path fill="#FFFFFF" d="M418.124,23.578h1.483l29.767,73.279h-15.922l-2.867-7.614h-23.438l-2.77,7.614h-16.021L418.124,23.578z
		 M425.344,75.991l-6.429-18.394l-6.625,18.394H425.344z"/>
	<path fill="#FFFFFF" d="M494.465,96.857l-14.24-26.998H473.4v26.998h-14.142V26.149h27.888c25.218,0,27.69,35.502,6.923,41.535
		l16.416,29.173H494.465z M473.4,56.113h12.461c9.592,0,9.592-15.822,0-15.822H473.4V56.113z"/>
	<path fill="#FFFFFF" d="M553.004,97.056c-47.468,0-47.468-71.302,0-71.302c35.305,0,44.402,39.458,27.295,59.632l9.296,11.867
		H573.97l-3.462-4.055C565.662,95.671,559.927,97.056,553.004,97.056z M565.86,66.894l4.944,6.329
		c7.219-12.658,1.385-33.129-17.801-33.129c-27.591,0-27.591,42.721,0,42.721c3.065,0,5.736-0.494,8.011-1.384l-11.867-14.537
		H565.86z"/>
</g>
</svg>
