<?xml version="1.0" encoding="utf-8"?>
<!-- Generator: Adobe Illustrator 16.0.0, SVG Export Plug-In . SVG Version: 6.00 Build 0)  -->
<!DOCTYPE svg PUBLIC "-//W3C//DTD SVG 1.1//EN" "http://www.w3.org/Graphics/SVG/1.1/DTD/svg11.dtd">
<svg version="1.1" id="Layer_1" xmlns="http://www.w3.org/2000/svg" xmlns:xlink="http://www.w3.org/1999/xlink" x="0px" y="0px"
	 width="600px" height="120px" viewBox="0 0 600 120" enable-background="new 0 0 600 120" xml:space="preserve">
<g id="_x33_32ad10b-05dd-0ed3-6cba-32f5dae3be33" transform="matrix(0.7499999999999998,0,0,0.7499999999999998,37.989120483398466,35.40124940872195)">
	<path fill="#070706" d="M88.426,51.314L81.341-0.765c-0.714-5.245-4.944-10.709-9.839-12.712L22.856-33.383
		c-1.682-0.69-3.663-1.053-5.731-1.053c-3.781,0-7.59,1.201-10.195,3.218L-34.633,0.958c-4.184,3.238-6.801,9.632-6.088,14.876
		l7.086,52.079c0.714,5.242,4.943,10.706,9.839,12.71l48.645,19.908c1.683,0.691,3.665,1.053,5.732,1.053
		c3.779,0,7.59-1.203,10.193-3.22l41.563-32.174C86.519,62.947,89.138,56.555,88.426,51.314z M31.628,52.028L0.703,39.37
		l30.583-23.905l5.243,38.566L31.628,52.028z M-24.388,66.656l-3.956-29.087l66.672,27.283l2.809,21.427l-6.077,4.703
		c-0.977,0.758-2.778,1.267-4.482,1.267c-0.854,0-1.632-0.125-2.195-0.355l-48.645-19.908
		C-22.079,71.242-24.124,68.599-24.388,66.656z M50.99-11.79L31.735,3.264l-41.24,31.927l-20.291-8.303l-1.677-12.312
		c-0.263-1.947,1.001-5.036,2.554-6.239L12.644-23.84c0.979-0.756,2.778-1.266,4.48-1.266c0.853,0,1.633,0.127,2.197,0.359
		L50.99-11.79z M76.623,58.809L49.681,79.664L40.33,8.392L60.937-7.716l7.029,2.877c1.819,0.744,3.862,3.384,4.126,5.332
		l7.084,52.077C79.442,54.517,78.177,57.604,76.623,58.809z"/>
</g>
<text transform="matrix(1 0 0 1 135.7544 101.9414)" fill="#020303" font-family="'LoveloBlack'" font-size="116.2484">edition</text>
</svg>
